<svg xmlns="http://www.w3.org/2000/svg" width="30" height="25.279" viewBox="0 0 30 25.279">
  <g id="_2169842" data-name="2169842" transform="translate(0 -40.283)">
    <path id="Path_2613" data-name="Path 2613" d="M29.555,48.766a2.073,2.073,0,0,0-1.631-.782H22.146L19.013,40.81a.879.879,0,1,0-1.611.7l2.826,6.47H9.772l2.826-6.47a.879.879,0,1,0-1.611-.7L7.854,47.984H2.076a2.073,2.073,0,0,0-1.631.782,2.024,2.024,0,0,0-.394,1.721L3.137,63.964a2.059,2.059,0,0,0,2.024,1.6H24.839a2.059,2.059,0,0,0,2.024-1.6l3.085-13.477a2.024,2.024,0,0,0-.394-1.721ZM24.839,63.8H5.161a.314.314,0,0,1-.311-.233L1.765,50.1a.268.268,0,0,1,.055-.233.319.319,0,0,1,.256-.12h5.01l-.23.527a.879.879,0,1,0,1.611.7L9,49.742H21l.537,1.231a.879.879,0,0,0,1.611-.7l-.23-.527h5.01a.319.319,0,0,1,.256.12.269.269,0,0,1,.055.233L25.149,63.572a.315.315,0,0,1-.311.233Z" transform="translate(0)" fill="#002e5b"/>
    <path id="Path_2614" data-name="Path 2614" d="M151.879,266.717a.879.879,0,0,0-.879.879v6.445a.879.879,0,0,0,1.758,0V267.6A.879.879,0,0,0,151.879,266.717Z" transform="translate(-142.152 -213.167)" fill="#002e5b"/>
    <path id="Path_2615" data-name="Path 2615" d="M241.879,266.717a.879.879,0,0,0-.879.879v6.445a.879.879,0,0,0,1.758,0V267.6A.879.879,0,0,0,241.879,266.717Z" transform="translate(-226.879 -213.167)" fill="#002e5b"/>
    <path id="Path_2616" data-name="Path 2616" d="M331.879,266.717a.879.879,0,0,0-.879.879v6.445a.879.879,0,0,0,1.758,0V267.6A.879.879,0,0,0,331.879,266.717Z" transform="translate(-311.605 -213.167)" fill="#002e5b"/>
  </g>
</svg>
