<svg xmlns="http://www.w3.org/2000/svg" id="_4290984" width="30" height="30" data-name="4290984" viewBox="0 0 30 30"><path id="Path_2608" fill="#002e5b" d="M29.121,0H.879A.879.879,0,0,0,0,.879V22.09a.879.879,0,0,0,.879.879h9.729v.293A2.64,2.64,0,0,1,7.972,25.9a.879.879,0,0,0-.879.879v2.344A.879.879,0,0,0,7.972,30H22.028a.879.879,0,0,0,.879-.879V26.777a.879.879,0,0,0-.879-.879,2.64,2.64,0,0,1-2.637-2.637v-.293h9.729A.879.879,0,0,0,30,22.09V.879A.879.879,0,0,0,29.121,0Zm-.879,1.758V15.92H1.758V1.758Zm-7.093,25.81v.674H8.851v-.674a4.4,4.4,0,0,0,3.516-4.306v-.293h5.268v.293A4.4,4.4,0,0,0,21.149,27.568ZM1.758,21.211V17.677H28.242v3.533Z" data-name="Path 2608"/><path id="Path_2609" fill="#002e5b" d="M91.829,68.981H105.86v2.246a.879.879,0,0,0,1.248.8l1.446-.669.249.539a.879.879,0,0,0,1.6-.738l-.249-.539,1.381-.639a.879.879,0,0,0,.208-1.461l-1.446-1.257V62.829a.879.879,0,0,0-.879-.879H91.829a.879.879,0,0,0-.879.879V68.1A.879.879,0,0,0,91.829,68.981Zm17.731-.027-1.942.9V67.266ZM92.708,63.708h15.826v2.025l-1.218-1.059a.88.88,0,0,0-1.456.663v1.886H92.708Z" data-name="Path 2609" transform="translate(-85.621 -58.32)"/><path id="Path_2610" fill="#002e5b" d="M103.352,211.823H91.929a.879.879,0,0,0,0,1.758h11.423a.879.879,0,1,0,0-1.758Z" data-name="Path 2610" transform="translate(-85.715 -199.411)"/><circle id="Ellipse_11" cx=".879" cy=".879" r=".879" fill="#002e5b" data-name="Ellipse 11" transform="translate(14.121 18.565)"/></svg>