<svg xmlns="http://www.w3.org/2000/svg" width="49.967" height="50" viewBox="0 0 49.967 50">
  <g id="Group_1573" data-name="Group 1573" transform="translate(-0.168)">
    <g id="Group_1564" data-name="Group 1564" transform="translate(0.168)">
      <g id="Group_1563" data-name="Group 1563">
        <path id="Path_2538" data-name="Path 2538" d="M42.262,37.006a10.254,10.254,0,0,0-3.813-15.411V12.577L25.872,0H.168V50H38.449V40.124a10.172,10.172,0,0,0,1.74-1.048l7.863,7.95,2.083-2.06ZM26.731,5l6.717,6.717H26.731V5ZM35.52,47.07H3.1V2.93H23.8V14.648H35.52v6.066A10.251,10.251,0,1,0,35.52,41Zm3.714-11.032a7.324,7.324,0,1,1,0-10.358A7.333,7.333,0,0,1,39.234,36.038Z" transform="translate(-0.168)" fill="#002e5b"/>
      </g>
    </g>
    <g id="Group_1566" data-name="Group 1566" transform="translate(6.028 17.676)">
      <g id="Group_1565" data-name="Group 1565">
        <rect id="Rectangle_128" data-name="Rectangle 128" width="21" height="3" transform="translate(0.14 0.324)" fill="#002e5b"/>
      </g>
    </g>
    <g id="Group_1568" data-name="Group 1568" transform="translate(6.028 23.535)">
      <g id="Group_1567" data-name="Group 1567">
        <rect id="Rectangle_129" data-name="Rectangle 129" width="15" height="3" transform="translate(0.14 0.465)" fill="#002e5b"/>
      </g>
    </g>
    <g id="Group_1570" data-name="Group 1570" transform="translate(6.028 35.254)">
      <g id="Group_1569" data-name="Group 1569">
        <rect id="Rectangle_130" data-name="Rectangle 130" width="15" height="3" transform="translate(0.14 0.746)" fill="#002e5b"/>
      </g>
    </g>
    <g id="Group_1572" data-name="Group 1572" transform="translate(6.028 30.395)">
      <g id="Group_1571" data-name="Group 1571">
        <rect id="Rectangle_131" data-name="Rectangle 131" width="15" height="3" transform="translate(0.14 -0.395)" fill="#002e5b"/>
      </g>
    </g>
  </g>
</svg>
