<svg id="Group_1620" data-name="Group 1620" xmlns="http://www.w3.org/2000/svg" width="30" height="30.006" viewBox="0 0 30 30.006">
  <path id="Path_2611" data-name="Path 2611" d="M25.987,63.643H14.294V51.95a.847.847,0,0,0-.85-.85A13.394,13.394,0,1,0,26.837,64.494.855.855,0,0,0,25.987,63.643ZM13.444,76.186a11.692,11.692,0,0,1-.85-23.354V64.494a.847.847,0,0,0,.85.85H25.1A11.7,11.7,0,0,1,13.444,76.186Z" transform="translate(-0.05 -47.881)" fill="#002e5b"/>
  <path id="Path_2612" data-name="Path 2612" d="M264.394,13.349A13.391,13.391,0,0,0,251,0a.847.847,0,0,0-.85.85V13.394a.847.847,0,0,0,.85.85h12.543a.847.847,0,0,0,.85-.85Zm-12.543-.8V1.739a11.7,11.7,0,0,1,10.811,10.811H251.851Z" transform="translate(-234.394)" fill="#002e5b"/>
</svg>
