<svg xmlns="http://www.w3.org/2000/svg" width="46" height="54.772" viewBox="0 0 46 54.772">
  <g id="Group_1562" data-name="Group 1562" transform="translate(-41)">
    <path id="Path_2535" data-name="Path 2535" d="M64,0,41,4.6V36.06C41,42.81,45.025,48.2,52.641,51.641a40.469,40.469,0,0,0,11.192,3.113l.168.018.168-.018a40.469,40.469,0,0,0,11.192-3.113C82.975,48.2,87,42.81,87,36.06V4.6ZM83.79,36.06c0,5.455-3.26,9.7-9.689,12.63A37.986,37.986,0,0,1,64,51.545,37.829,37.829,0,0,1,53.964,48.72c-6.472-2.926-9.754-7.186-9.754-12.66V7.226L64,3.27,83.79,7.226Z" fill="#002e5b"/>
    <path id="Path_2536" data-name="Path 2536" d="M175.333,109.791a7.528,7.528,0,0,0,2.787,5.84,8.736,8.736,0,0,0-3.886,7.262v9.878h17.494v-9.878a8.736,8.736,0,0,0-3.886-7.262,7.528,7.528,0,0,0,2.787-5.84,7.648,7.648,0,0,0-15.3,0Zm13.185,13.1v6.671H177.443v-6.671a5.537,5.537,0,0,1,11.075,0Zm-1.1-13.1a4.438,4.438,0,1,1-4.438-4.363A4.406,4.406,0,0,1,187.418,109.791Z" transform="translate(-118.98 -91.286)" fill="#002e5b"/>
    <path id="Path_2537" data-name="Path 2537" d="M241,285.792h3.21V289H241Z" transform="translate(-178.604 -255.219)" fill="#002e5b"/>
  </g>
</svg>
