<svg xmlns="http://www.w3.org/2000/svg" width="49" height="49" viewBox="0 0 49 49">
  <path id="Path_2539" data-name="Path 2539" d="M46.129,11.58V8.709H28.56a4.327,4.327,0,0,0-2.624-2.624V0H23.064V6.085A4.327,4.327,0,0,0,20.44,8.709H2.871V11.58H6.46L0,27.084v.287a7.186,7.186,0,0,0,7.178,7.178h2.871a7.186,7.186,0,0,0,7.178-7.178v-.287l-6.46-15.5H20.44A4.327,4.327,0,0,0,23.064,14.2V34.789a7.2,7.2,0,0,0-5.62,5.72,7.188,7.188,0,0,0-5.865,7.055V49H37.42V47.564a7.188,7.188,0,0,0-5.865-7.055,7.2,7.2,0,0,0-5.62-5.72V14.2A4.327,4.327,0,0,0,28.56,11.58h9.674l-6.46,15.5v.287a7.186,7.186,0,0,0,7.178,7.178h2.871A7.186,7.186,0,0,0,49,27.371v-.287l-6.46-15.5Zm-37.516,2.3,5.024,12.059H3.589Zm1.436,17.8H7.178a4.313,4.313,0,0,1-4.06-2.872H14.109A4.313,4.313,0,0,1,10.049,31.678Zm30.338-17.8,5.024,12.059H35.362Zm1.436,17.8H38.951a4.313,4.313,0,0,1-4.06-2.872H45.882A4.313,4.313,0,0,1,41.822,31.678ZM34.3,46.129H14.7a4.314,4.314,0,0,1,4.061-2.871H30.242A4.314,4.314,0,0,1,34.3,46.129ZM28.56,40.387H20.44a4.306,4.306,0,0,1,8.119,0ZM24.5,11.58a1.436,1.436,0,1,1,1.436-1.436A1.437,1.437,0,0,1,24.5,11.58Z" fill="#002e5b"/>
</svg>
