<svg xmlns="http://www.w3.org/2000/svg" width="49.967" height="50" viewBox="0 0 49.967 50">
  <path id="Path_2538" data-name="Path 2538" d="M42.262,37.006a10.254,10.254,0,0,0-3.813-15.411V12.577L25.872,0H.168V50H38.449V40.124a10.172,10.172,0,0,0,1.74-1.048l7.863,7.95,2.083-2.06ZM26.731,5l6.717,6.717H26.731V5ZM35.52,47.07H3.1V2.93H23.8V14.648H35.52v6.066A10.251,10.251,0,1,0,35.52,41Zm3.714-11.032a7.324,7.324,0,1,1,0-10.358A7.333,7.333,0,0,1,39.234,36.038Z" transform="translate(-0.168)" fill="#002e5b"/>
</svg>
